# xmcd
#
# Track frame offsets:
#	150
#	15912
#	33252
#	57382
#	71537
#	87075
#	99542
#	115237
#	128604
#	144335
#	156012
#	170590
#	186770
#	202027
#	215695
#	233915
#	248932
#	264045
#	276290
#	290575
#	304435
#
# Disc length: 4255 seconds
#
# Revision: 3
# Processed by: cddbd v1.5.2PL0 Copyright (c) Steve Scherf et al.
# Submitted via: audiograbber 1.83.01
#
DISCID=2d109d15
DTITLE=Nando Cordel - 20 Super Sucessos
DYEAR=1998
DGENRE=MPB
TTITLE0=Minha Fraqueza é Você
TTITLE1=É de Dar Água na Boca
TTITLE2=De Volta Pro Aconchego
TTITLE3=Enfeitiçou Meu Coração
TTITLE4=Amor Imenso
TTITLE5=Isso é Que é Bom
TTITLE6=Mel e Aveloz
TTITLE7=Forro do Pega Rela
TTITLE8=Minha Doce Estrela
TTITLE9=Sabiá
TTITLE10=Você Endoideceu Meu Coração
TTITLE11=Doido Pra Te Amar
TTITLE12=Meu Bom Bom
TTITLE13=Sanfoneiro Quando é Bom
TTITLE14=Você Caiu do Céu
TTITLE15=Será Que a Gente se Namora?
TTITLE16=Eu Nunca Esqueci Você
TTITLE17=Visgo Forte
TTITLE18=Folha, Rama, Cheiro e Flores
TTITLE19=Tá Gostoso
TTITLE20=Grude
EXTD=Dados Por - Dayvison de Azevedo - Recife - PE\nFacebook - https://www.face
EXTD=book.com/profile.php?id=100006142608616
EXTT0=
EXTT1=
EXTT2=
EXTT3=
EXTT4=
EXTT5=
EXTT6=
EXTT7=
EXTT8=
EXTT9=
EXTT10=
EXTT11=
EXTT12=
EXTT13=
EXTT14=
EXTT15=
EXTT16=
EXTT17=
EXTT18=
EXTT19=
EXTT20=
PLAYORDER=
